<svg xmlns="http://www.w3.org/2000/svg" viewBox="0 0 24 24" fill="#F2C94C">
  <path d="M12 2a10 10 0 1 0 0 20a10 10 0 0 0 0-20Zm7.93 9h-3.01a15.85 15.85 0 0 0-1.44-5.12A8.03 8.03 0 0 1 19.93 11Zm-7.93 9c-.94 0-2.55-2.24-3.02-6h6.04c-.47 3.76-2.08 6-3.02 6Zm-3.26-9c.47-3.76 2.08-6 3.26-6s2.79 2.24 3.26 6H8.74Zm-4.67 3h3.01a15.85 15.85 0 0 0 1.44 5.12A8.03 8.03 0 0 1 4.07 14Zm0-3a8.03 8.03 0 0 1 4.45-5.12A15.85 15.85 0 0 0 7.08 11H4.07Zm11.41 8.12A15.85 15.85 0 0 0 16.92 14h3.01a8.03 8.03 0 0 1-4.45 5.12Z"/>
</svg>
